<?xml version="1.0" encoding="utf-8"?>
<svg viewBox="0 0 164 210.001" width="164" height="210.001" xmlns="http://www.w3.org/2000/svg">
  <path d="M 149 210.001 L 105 210.001 C 47.103 210.001 0 162.897 0 105 C 0 47.103 47.103 0 105 0 L 149 0 C 157.284 0 164 6.716 164 15 L 164 195.001 C 164 203.285 157.284 210.001 149 210.001 Z M 134 30 L 105 30 C 63.645 30 30 63.646 30 105.001 C 30 146.356 63.645 180.001 105 180.001 L 134 180.001 L 134 30 Z" transform="matrix(-1, 0, 0, -1, 164, 210.001007)"/>
</svg>