<?xml version="1.0" encoding="utf-8"?>
<svg viewBox="0 0 40 30" width="40px" height="30px" xmlns="http://www.w3.org/2000/svg">
  <path d="M 10.531 7.527 C 11.482 7.446 13.012 7.551 13.925 7.795 C 14.662 7.992 15.14 8.298 15.711 8.688 C 16.319 9.104 16.945 9.587 17.452 10.25 C 18.02 10.994 18.613 12.046 18.881 13.019 C 19.145 13.982 19.194 15.071 19.059 16.055 C 18.925 17.036 18.55 18.087 18.077 18.912 C 17.628 19.696 17.03 20.367 16.336 20.921 C 15.623 21.49 14.774 21.989 13.835 22.261 C 12.826 22.553 11.474 22.655 10.442 22.529 C 9.496 22.412 8.643 22.083 7.853 21.636 C 7.049 21.181 6.253 20.528 5.665 19.805 C 5.078 19.084 4.597 18.243 4.325 17.305 C 4.033 16.295 3.922 14.964 4.057 13.912 C 4.185 12.919 4.58 11.941 5.04 11.143 C 5.473 10.392 6.085 9.745 6.692 9.224 C 7.266 8.73 7.916 8.347 8.567 8.063 C 9.197 7.788 9.757 7.593 10.531 7.527 Z" style="stroke-width: 0px;"/>
</svg>