<?xml version="1.0" encoding="utf-8"?>
<svg viewBox="0 0 40 30" width="40px" height="30px" xmlns="http://www.w3.org/2000/svg">
  <path d="M 27.365 7.527 C 28.316 7.446 29.846 7.551 30.759 7.795 C 31.496 7.992 31.974 8.298 32.545 8.688 C 33.153 9.104 33.779 9.587 34.286 10.25 C 34.854 10.994 35.447 12.046 35.715 13.019 C 35.979 13.982 36.028 15.071 35.893 16.055 C 35.759 17.036 35.384 18.087 34.911 18.912 C 34.462 19.696 33.864 20.367 33.17 20.921 C 32.457 21.49 31.608 21.989 30.669 22.261 C 29.66 22.553 28.308 22.655 27.276 22.529 C 26.33 22.412 25.477 22.083 24.687 21.636 C 23.883 21.181 23.087 20.528 22.499 19.805 C 21.912 19.084 21.431 18.243 21.159 17.305 C 20.867 16.295 20.756 14.964 20.891 13.912 C 21.019 12.919 21.414 11.941 21.874 11.143 C 22.307 10.392 22.919 9.745 23.526 9.224 C 24.1 8.73 24.75 8.347 25.401 8.063 C 26.031 7.788 26.591 7.593 27.365 7.527 Z" style="stroke-width: 0px;"/>
</svg>