<?xml version="1.0" encoding="utf-8"?>
<svg viewBox="0 0 12 12" xmlns="http://www.w3.org/2000/svg">
  <path d="M 9.235 0.17 C 9.288 0.09 9.355 0.05 9.435 0.05 L 10.315 0.05 C 10.428 0.05 10.485 0.107 10.485 0.22 L 10.485 11.78 C 10.485 11.893 10.428 11.95 10.315 11.95 L 9.455 11.95 C 9.342 11.95 9.285 11.893 9.285 11.78 L 9.285 2.33 C 9.285 2.297 9.272 2.273 9.245 2.26 C 9.225 2.247 9.208 2.257 9.195 2.29 L 6.425 6.54 C 6.372 6.62 6.305 6.66 6.225 6.66 L 5.785 6.66 C 5.705 6.66 5.635 6.627 5.575 6.56 L 2.805 2.34 C 2.792 2.307 2.775 2.297 2.755 2.31 C 2.735 2.323 2.725 2.347 2.725 2.38 L 2.725 11.78 C 2.725 11.893 2.668 11.95 2.555 11.95 L 1.685 11.95 C 1.572 11.95 1.515 11.893 1.515 11.78 L 1.515 0.22 C 1.515 0.107 1.572 0.05 1.685 0.05 L 2.565 0.05 C 2.658 0.05 2.728 0.083 2.775 0.15 L 5.965 5 C 5.978 5.007 5.995 5.01 6.015 5.01 C 6.042 5.01 6.058 5.007 6.065 5 L 9.235 0.17 Z" style="fill: rgb(51, 51, 51); white-space: pre;"/>
</svg>