<?xml version="1.0" encoding="utf-8"?>
<svg viewBox="0 0 90 210.001" width="90px" height="210.001" xmlns="http://www.w3.org/2000/svg" xmlns:bx="https://boxy-svg.com">
  <path d="M -45 -41.346 L -43.723 -37.756 L -40.281 -39.392 L -41.917 -35.95 L -38.327 -34.673 L -41.917 -33.396 L -40.281 -29.954 L -43.723 -31.59 L -45 -28 L -46.277 -31.59 L -49.719 -29.954 L -48.083 -33.396 L -51.673 -34.673 L -48.083 -35.95 L -49.719 -39.392 L -46.277 -37.756 Z" style="stroke-linecap: round; stroke-width: 15px; stroke: rgb(0, 0, 0);" transform="matrix(-1, 0, 0, -1, 0, 0)" bx:shape="star -45 -34.673 6.673 6.673 0.5 8 1@1da6c75a"/>
  <path d="M -45 -181.653 L -43.723 -178.063 L -40.281 -179.699 L -41.917 -176.257 L -38.327 -174.98 L -41.917 -173.703 L -40.281 -170.261 L -43.723 -171.897 L -45 -168.307 L -46.277 -171.897 L -49.719 -170.261 L -48.083 -173.703 L -51.673 -174.98 L -48.083 -176.257 L -49.719 -179.699 L -46.277 -178.063 Z" style="stroke-linecap: round; stroke-width: 15px; stroke: rgb(0, 0, 0);" transform="matrix(-1, 0, 0, -1, 0, 0)" bx:shape="star -45 -174.98 6.673 6.673 0.5 8 1@d54a9a75"/>
</svg>