<?xml version="1.0" encoding="utf-8"?>
<svg viewBox="0 0 90 210" xmlns="http://www.w3.org/2000/svg">
  <path d="M 51.96 134.915 L 34.8 134.915 C 34.86 130.462 35.044 126.798 35.35 123.925 C 35.664 121.052 36.314 118.485 37.3 116.225 C 38.294 113.965 39.717 111.798 41.57 109.725 C 43.424 107.658 45.897 105.202 48.99 102.355 C 51.097 100.188 53.247 97.962 55.44 95.675 C 57.634 93.388 59.644 90.992 61.47 88.485 C 63.297 85.978 64.797 83.335 65.97 80.555 C 67.144 77.768 67.73 74.828 67.73 71.735 C 67.73 64.995 65.784 59.848 61.89 56.295 C 57.99 52.735 52.424 50.955 45.19 50.955 C 42.284 50.955 39.454 51.312 36.7 52.025 C 33.947 52.738 31.504 53.852 29.37 55.365 C 27.237 56.878 25.52 58.795 24.22 61.115 C 22.92 63.435 22.27 66.202 22.27 69.415 L 5.11 69.415 C 5.17 64.222 6.254 59.555 8.36 55.415 C 10.46 51.268 13.29 47.758 16.85 44.885 C 20.404 42.005 24.607 39.808 29.46 38.295 C 34.32 36.782 39.564 36.025 45.19 36.025 C 51.437 36.025 57.017 36.812 61.93 38.385 C 66.85 39.965 71.01 42.268 74.41 45.295 C 77.81 48.328 80.407 52.008 82.2 56.335 C 83.994 60.668 84.89 65.618 84.89 71.185 C 84.89 75.638 84.12 79.828 82.58 83.755 C 81.034 87.682 79.054 91.392 76.64 94.885 C 74.227 98.378 71.52 101.642 68.52 104.675 C 65.52 107.702 62.567 110.515 59.66 113.115 C 57.807 114.908 56.37 116.608 55.35 118.215 C 54.33 119.828 53.57 121.468 53.07 123.135 C 52.577 124.808 52.27 126.588 52.15 128.475 C 52.024 130.355 51.96 132.502 51.96 134.915 Z M 32.85 163.955 C 32.85 160.988 33.73 158.515 35.49 156.535 C 37.257 154.555 39.904 153.565 43.43 153.565 C 46.95 153.565 49.624 154.555 51.45 156.535 C 53.277 158.515 54.19 160.988 54.19 163.955 C 54.19 166.802 53.277 169.182 51.45 171.095 C 49.624 173.015 46.95 173.975 43.43 173.975 C 39.904 173.975 37.257 173.015 35.49 171.095 C 33.73 169.182 32.85 166.802 32.85 163.955 Z" style="fill: rgb(51, 51, 51); white-space: pre;"/>
</svg>